<svg aria-hidden="true" style="position: absolute; width: 0; height: 0; overflow: hidden;" version="1.1" xmlns="http://www.w3.org/2000/svg" xmlns:xlink="http://www.w3.org/1999/xlink">
<defs>
<symbol id="icon-cart" viewBox="0 0 32 32">
<path fill="#fff" style="fill: var(--color1, #fff)" d="M29.096 9.908c-0.123-0.177-0.286-0.322-0.477-0.422s-0.403-0.152-0.619-0.152h-18.223l-1.539-3.693c-0.202-0.486-0.543-0.902-0.982-1.194s-0.953-0.447-1.48-0.446h-3.111v2.667h3.111l6.325 15.18c0.101 0.243 0.272 0.45 0.491 0.596s0.476 0.224 0.739 0.224h10.667c0.556 0 1.053-0.345 1.249-0.864l4-10.667c0.076-0.202 0.101-0.419 0.074-0.633s-0.105-0.418-0.228-0.595zM23.076 20h-8.853l-3.333-8h15.187l-3 8z"></path>
<path fill="#fff" style="fill: var(--color1, #fff)" d="M14 28c1.105 0 2-0.895 2-2s-0.895-2-2-2c-1.105 0-2 0.895-2 2s0.895 2 2 2z"></path>
<path fill="#fff" style="fill: var(--color1, #fff)" d="M23.333 28c1.104 0 2-0.895 2-2s-0.896-2-2-2c-1.105 0-2 0.895-2 2s0.895 2 2 2z"></path>
</symbol>
<symbol id="icon-search" viewBox="0 0 32 32">
<path fill="#fff" style="fill: var(--color1, #fff)" d="M28 25.333l-6.872-6.872c1.27-1.931 1.779-4.264 1.428-6.549s-1.538-4.357-3.329-5.817c-1.792-1.46-4.062-2.203-6.37-2.086s-4.491 1.087-6.125 2.722-2.604 3.817-2.722 6.125c-0.118 2.308 0.626 4.578 2.086 6.37s3.533 2.978 5.817 3.329c2.284 0.351 4.618-0.158 6.549-1.428l6.872 6.872 2.667-2.667zM6.667 13.333c0-3.676 2.991-6.667 6.667-6.667s6.667 2.991 6.667 6.667c0 3.676-2.991 6.667-6.667 6.667s-6.667-2.991-6.667-6.667z"></path>
</symbol>
<symbol id="icon-login" viewBox="0 0 32 32">
<path fill="#969696" style="fill: var(--color2, #969696)" d="M12 2.667h12c1.467 0 2.667 1.2 2.667 2.667v21.333c0 1.467-1.2 2.667-2.667 2.667h-12c-1.467 0-2.667-1.2-2.667-2.667v-2.666h2.667v2.666h12v-21.333h-12v2.667h-2.667v-2.667c0-1.467 1.2-2.667 2.667-2.667z"></path>
<path fill="#969696" style="fill: var(--color2, #969696)" d="M13.453 20.787l1.88 1.88 6.667-6.667-6.667-6.667-1.88 1.88 3.44 3.453h-12.893v2.667h12.893l-3.44 3.453z"></path>
</symbol>
<symbol id="icon-phone" viewBox="0 0 32 32">
<path fill="#000000" style="fill: var(--color2, #969696)" d="M24.229 31.238c-6.221-0.008-12.185-2.483-16.585-6.882s-6.874-10.363-6.882-16.584c0-1.859 0.739-3.642 2.053-4.956s3.097-2.053 4.956-2.053c0.394-0.003 0.787 0.033 1.173 0.107 0.374 0.055 0.741 0.147 1.097 0.274 0.25 0.088 0.473 0.239 0.647 0.44s0.292 0.443 0.343 0.703l2.088 9.143c0.056 0.248 0.050 0.506-0.020 0.751s-0.199 0.469-0.376 0.651c-0.198 0.213-0.213 0.229-2.088 1.204 1.501 3.293 4.134 5.937 7.421 7.451 0.99-1.889 1.006-1.905 1.219-2.103 0.182-0.178 0.406-0.307 0.651-0.376s0.503-0.076 0.751-0.020l9.143 2.088c0.252 0.058 0.485 0.18 0.677 0.353s0.337 0.393 0.42 0.637c0.129 0.362 0.226 0.734 0.29 1.112 0.061 0.383 0.092 0.77 0.091 1.158-0.028 1.851-0.787 3.616-2.112 4.909s-3.107 2.010-4.958 1.994zM7.771 3.809c-1.050 0.004-2.055 0.423-2.797 1.165s-1.161 1.748-1.165 2.797c0.004 5.414 2.157 10.606 5.985 14.434s9.020 5.981 14.434 5.985c1.049-0.004 2.055-0.423 2.797-1.165s1.161-1.747 1.165-2.797v-0.503l-7.070-1.631-0.442 0.838c-0.686 1.326-1.189 2.286-2.469 1.768-2.525-0.904-4.817-2.359-6.71-4.259s-3.338-4.199-4.231-6.727c-0.549-1.189 0.488-1.737 1.798-2.423l0.838-0.411-1.63-7.070h-0.503z"></path>
</symbol>
<symbol id="cross" viewBox="0 0 32 32">
<path d="M31.708 25.708c-0-0-0-0-0-0l-9.708-9.708 9.708-9.708c0-0 0-0 0-0 0.105-0.105 0.18-0.227 0.229-0.357 0.133-0.356 0.057-0.771-0.229-1.057l-4.586-4.586c-0.286-0.286-0.702-0.361-1.057-0.229-0.13 0.048-0.252 0.124-0.357 0.228 0 0-0 0-0 0l-9.708 9.708-9.708-9.708c-0-0-0-0-0-0-0.105-0.104-0.227-0.18-0.357-0.228-0.356-0.133-0.771-0.057-1.057 0.229l-4.586 4.586c-0.286 0.286-0.361 0.702-0.229 1.057 0.049 0.13 0.124 0.252 0.229 0.357 0 0 0 0 0 0l9.708 9.708-9.708 9.708c-0 0-0 0-0 0-0.104 0.105-0.18 0.227-0.229 0.357-0.133 0.355-0.057 0.771 0.229 1.057l4.586 4.586c0.286 0.286 0.702 0.361 1.057 0.229 0.13-0.049 0.252-0.124 0.357-0.229 0-0 0-0 0-0l9.708-9.708 9.708 9.708c0 0 0 0 0 0 0.105 0.105 0.227 0.18 0.357 0.229 0.356 0.133 0.771 0.057 1.057-0.229l4.586-4.586c0.286-0.286 0.362-0.702 0.229-1.057-0.049-0.13-0.124-0.252-0.229-0.357z"></path>
</symbol>
<symbol id="burger" viewBox="0 0 32 32">
<path d="M0 2h32v4h-32zM0 8h32v4h-32zM0 14h32v4h-32zM0 20h32v4h-32zM0 26h32v4h-32z"></path>
</symbol>
</defs>
</svg>
